<svg width="20" height="13" viewBox="0 0 20 13" fill="none" xmlns="http://www.w3.org/2000/svg">
<path d="M12.3825 6.28516C12.3825 5.88337 12.3406 5.57366 12.282 5.26395H6.48961V7.37333H9.97175C9.82945 8.26897 8.91706 10.0184 6.48961 10.0184C4.39697 10.0184 2.68938 8.28571 2.68938 6.14286C2.68938 4 4.39697 2.2673 6.48961 2.2673C7.68659 2.2673 8.48179 2.7779 8.9338 3.21317L10.5995 1.6144C9.52811 0.609933 8.14697 0.00725383 6.48961 0.00725383C3.09954 0.00725383 0.354004 2.75279 0.354004 6.14286C0.354004 9.53292 3.09954 12.2785 6.48961 12.2785C10.0303 12.2785 12.3825 9.79241 12.3825 6.28516ZM19.6397 5.26395H17.8903V3.51451H16.1325V5.26395H14.383V7.02176H16.1325V8.77121H17.8903V7.02176H19.6397V5.26395Z" fill="#DE4B39"/>
</svg>
