<svg width="14" height="12" viewBox="0 0 14 12" fill="none" xmlns="http://www.w3.org/2000/svg">
<path d="M13.5949 2.05804C13.1094 2.2673 12.5821 2.41797 12.038 2.47656C12.5988 2.14174 13.0257 1.6144 13.2266 0.986607C12.7077 1.29632 12.1217 1.52232 11.5107 1.63951C11.0168 1.11216 10.3137 0.785714 9.53523 0.785714C8.0369 0.785714 6.83154 1.99944 6.83154 3.4894C6.83154 3.69866 6.85665 3.90792 6.89851 4.10882C4.6552 3.99163 2.65465 2.9202 1.32373 1.27958C1.08936 1.68136 0.955427 2.14174 0.955427 2.64397C0.955427 3.58147 1.43255 4.41016 2.16078 4.89565C1.71715 4.87891 1.29862 4.75335 0.938686 4.55246C0.938686 4.56083 0.938686 4.57757 0.938686 4.58594C0.938686 5.90011 1.86782 6.98828 3.10665 7.2394C2.88065 7.29799 2.6379 7.33147 2.39516 7.33147C2.21938 7.33147 2.05197 7.31473 1.88456 7.28962C2.22775 8.36105 3.22384 9.13951 4.41246 9.16462C3.48333 9.89286 2.31982 10.3198 1.05587 10.3198C0.829869 10.3198 0.620605 10.3114 0.402972 10.2863C1.59996 11.0564 3.02295 11.5 4.55476 11.5C9.52686 11.5 12.2473 7.3817 12.2473 3.80748C12.2473 3.69029 12.2473 3.5731 12.2389 3.45591C12.7663 3.07087 13.2266 2.59375 13.5949 2.05804Z" fill="#55ACEE"/>
</svg>
